<svg xmlns="http://www.w3.org/2000/svg" id="Ebene_1" data-name="Ebene 1" viewBox="0 0 45 21"><path d="M42.691,8.676c-.919,0-1.675.687-1.798,1.574h-8.465c-.134-5.26-4.446-9.5-9.737-9.5s-9.603,4.24-9.737,9.5H4.37c-.131-.877-.883-1.555-1.797-1.555-1.005,0-1.823.818-1.823,1.824s.818,1.823,1.823,1.823c.926,0,1.685-.696,1.8-1.592h8.58c.134,5.26,4.446,9.5,9.737,9.5s9.603-4.24,9.737-9.5h8.465c.123.886.879,1.573,1.798,1.573,1.005,0,1.823-.818,1.823-1.823s-.818-1.824-1.823-1.824ZM22.691,1.25c5.016,0,9.103,4.016,9.237,9H13.454c.134-4.984,4.221-9,9.237-9ZM2.573,11.842c-.729,0-1.323-.594-1.323-1.323s.594-1.324,1.323-1.324,1.324.594,1.324,1.324-.594,1.323-1.324,1.323ZM22.691,19.75c-5.016,0-9.103-4.016-9.237-9h18.475c-.134,4.984-4.221,9-9.237,9ZM42.691,11.823c-.729,0-1.323-.594-1.323-1.323s.594-1.324,1.323-1.324,1.323.594,1.323,1.324-.594,1.323-1.323,1.323Z"></path></svg>